<svg height="512pt" viewBox="-42 0 512 512" width="512pt" xmlns="http://www.w3.org/2000/svg"><path d="m169.578125 382.507812h88.90625v98.617188h-88.90625zm0 0" fill="#a8d3d8"/><path d="m428.0625 214.03125c0 118.207031-95.824219 214.03125-214.03125 214.03125s-214.03125-95.824219-214.03125-214.03125 95.824219-214.03125 214.03125-214.03125 214.03125 95.824219 214.03125 214.03125zm0 0" fill="#537983"/><path d="m392.242188 214.03125c0 98.421875-79.789063 178.210938-178.210938 178.210938s-178.210938-79.789063-178.210938-178.210938 79.789063-178.210938 178.210938-178.210938 178.210938 79.789063 178.210938 178.210938zm0 0" fill="#deecf1"/><path d="m214.03125 35.820312c-5.410156 0-10.761719.242188-16.046875.714844 90.972656 8.046875 162.308594 84.433594 162.308594 177.496094s-71.335938 169.449219-162.308594 177.496094c5.285156.472656 10.636719.714844 16.046875.714844 98.421875 0 178.207031-79.789063 178.207031-178.210938.003907-98.421875-79.785156-178.210938-178.207031-178.210938zm0 0" fill="#a8d3d8"/><path d="m364.414062 206.304688h-12.433593c-1.683594-30.378907-13.3125-60.296876-34.890625-84.40625l8.742187-8.742188c3.019531-3.019531 3.019531-7.910156 0-10.929688-3.015625-3.015624-7.910156-3.015624-10.925781.003907l-8.746094 8.742187c-24.105468-21.578125-54.027344-33.207031-84.402344-34.894531v-12.429687c0-4.269532-3.457031-7.726563-7.726562-7.726563-4.265625 0-7.726562 3.457031-7.726562 7.726563v12.429687c-30.375 1.6875-60.292969 13.316406-84.402344 34.894531l-8.742188-8.746094c-3.019531-3.015624-7.910156-3.015624-10.929687 0-3.015625 3.019532-3.015625 7.910157 0 10.929688l8.746093 8.742188c-21.582031 24.109374-33.210937 54.027343-34.894531 84.40625h-12.433593c-4.265626 0-7.722657 3.457031-7.722657 7.722656 0 4.269531 3.457031 7.726562 7.722657 7.726562h12.433593c1.683594 30.378906 13.3125 60.296875 34.890625 84.40625l-8.738281 8.742188c-3.019531 3.019531-3.019531 7.910156 0 10.925781 1.507813 1.511719 3.484375 2.265625 5.460937 2.265625 1.976563 0 3.957032-.753906 5.464844-2.265625l14.042969-14.042969c.003906-.003906.003906-.003906.007813-.003906.1875-.191406.363281-.386719.527343-.589844 2.480469-3.035156 2.300781-7.511718-.527343-10.339844-.015626-.015624-.03125-.027343-.046876-.042968-47.824218-47.871094-47.816406-125.71875.027344-173.582032.003906-.003906.011719-.011718.019532-.015624.007812-.007813.011718-.015626.019531-.023438 47.875-47.851562 125.75-47.847656 173.621093.015625 0 .003906 0 .003906.003907.007813 0 0 .003906 0 .003906.003906 47.859375 47.863281 47.867187 125.734375.023437 173.609375-.007812.011719-.019531.019531-.027343.027343-1.886719 1.886719-2.59375 4.503907-2.121094 6.9375.28125 1.464844.988281 2.859376 2.121094 3.992188.011719.011719.023437.023438.035156.035156l14.015625 14.011719c1.507812 1.511719 3.484375 2.265625 5.460938 2.265625 1.980468 0 3.957031-.753906 5.464843-2.261719 3.019531-3.019531 3.019531-7.910156 0-10.929687l-8.742187-8.742188c21.578125-24.109375 33.207031-54.027344 34.890625-84.402344h12.433593c4.269532 0 7.726563-3.460937 7.726563-7.726562 0-4.269531-3.457031-7.726562-7.726563-7.726562zm0 0" fill="#00bfd8"/><path d="m348.449219 512h-268.839844c-7.261719 0-13.148437-5.886719-13.148437-13.152344 0-20.070312 16.269531-36.339844 36.339843-36.339844h222.460938c20.070312 0 36.339843 16.269532 36.339843 36.339844 0 7.265625-5.886718 13.152344-13.152343 13.152344zm0 0" fill="#537983"/><path d="m325.261719 462.507812h-17.234375v.0625c12.65625.851563 22.660156 11.382813 22.660156 24.257813v25.171875h17.761719c7.265625 0 13.152343-5.886719 13.152343-13.152344 0-20.070312-16.269531-36.339844-36.339843-36.339844zm0 0" fill="#3e5959"/><path d="m241.863281 331.570312h-55.664062c-4.269531 0-7.726563-3.457031-7.726563-7.722656 0-4.269531 3.457032-7.726562 7.726563-7.726562h55.664062c4.265625 0 7.726563 3.457031 7.726563 7.726562 0 4.265625-3.457032 7.722656-7.726563 7.722656zm0 0" fill="#79aa1e"/><path d="m268.890625 70.675781c-7.15625-2.714843-15.164063.878907-17.882813 8.039063l-66.992187 176.511718c-2.714844 7.144532.867187 15.136719 8.007813 17.867188 7.164062 2.742188 15.191406-.859375 17.914062-8.027344l66.988281-176.507812c2.71875-7.15625-.878906-15.164063-8.035156-17.882813zm0 0" fill="#ff4755"/><path d="m242.773438 214.03125c0 15.875-12.867188 28.742188-28.742188 28.742188s-28.742188-12.867188-28.742188-28.742188 12.867188-28.742188 28.742188-28.742188 28.742188 12.867188 28.742188 28.742188zm0 0" fill="#3e5959"/></svg>