<svg id="Capa_1" enable-background="new 0 0 497.072 497.072" height="512" viewBox="0 0 497.072 497.072" width="512" xmlns="http://www.w3.org/2000/svg"><path d="m497.008 7.507v52.437l-60 31.03 30-90.14c7.409-.441 14.868-.72 22.365-.832 4.193-.064 7.635 3.31 7.635 7.505z" fill="#db3916"/><path d="m467.008.833v60.14l-407 435.97h-52.437c-4.196 0-7.569-3.444-7.505-7.639 3.93-260.933 208.935-473.11 466.942-488.471z" fill="#fc5a37"/><path d="m497.008 59.943v60l-60 31.19 30-90.16c9.91-.69 19.92-1.03 30-1.03z" fill="#fe843f"/><path d="m467.008 60.973v60.16l-347 375.81h-60c0-230.88 179.98-420.52 407-435.97z" fill="#ffae46"/><path d="m497.008 119.943v60l-60 31.41 30-90.22c9.9-.79 19.9-1.19 30-1.19z" fill="#ffc85f"/><path d="m467.008 121.133v60.22s-287 323.09-287 315.59h-60c0-197.78 153.09-360.48 347-375.81z" fill="#ffe278"/><path d="m497.008 179.943v60l-173.5 129.37 143.5-187.96c9.88-.93 19.88-1.41 30-1.41z" fill="#2fa157"/><path d="m467.008 181.353v60.33l-143.5 127.63-83.5 127.63h-60c0-164.67 126.23-300.43 287-315.59z" fill="#47bf70"/><path d="m497.008 239.943v60l-75 52.28 45-110.54c9.84-1.15 19.85-1.74 30-1.74z" fill="#12b5ff"/><path d="m467.008 241.683v60.54l-167 194.72h-60c0-131.56 99.37-240.36 227-255.26z" fill="#48d9ff"/><path d="m497.008 299.948v52.699c0 3.981-3.111 7.278-7.087 7.481-7.826.4-15.482 1.46-22.913 3.129l-30-30.515 30-30.515c9.78-1.499 19.8-2.279 30-2.279z" fill="#487ed2"/><path d="m467.008 302.228v61.03c-58.931 13.21-103.638 64.505-106.819 126.599-.204 3.977-3.499 7.091-7.481 7.091h-52.7c0-98.43 72.56-180.23 167-194.72z" fill="#73a7e6"/></svg>