<svg height="512pt" viewBox="0 0 512 512" width="512pt" xmlns="http://www.w3.org/2000/svg" xmlns:xlink="http://www.w3.org/1999/xlink"><radialGradient id="a" cx="189.5532234094" cy="123.2072309798" gradientUnits="userSpaceOnUse" r="355.6919740128"><stop offset="0" stop-color="#8be1e2"/><stop offset=".2752" stop-color="#88e1e1"/><stop offset=".4407" stop-color="#80e1de"/><stop offset=".5772" stop-color="#72e2d9"/><stop offset=".698" stop-color="#5ee3d2"/><stop offset=".8083" stop-color="#43e4c9"/><stop offset=".9096" stop-color="#23e5be"/><stop offset="1" stop-color="#00e7b2"/></radialGradient><linearGradient id="b"><stop offset=".0029" stop-color="#00e7b2" stop-opacity="0"/><stop offset=".4308" stop-color="#1bc4b7" stop-opacity=".427451"/><stop offset="1" stop-color="#3b9abe"/></linearGradient><linearGradient id="c" gradientUnits="userSpaceOnUse" x1="472.3682908138" x2="287.5871102392" xlink:href="#b" y1="392.063164543" y2="81.833697908"/><linearGradient id="d" gradientUnits="userSpaceOnUse" x1="359.0156585782" x2="-145.55363117" xlink:href="#b" y1="302.6628061288" y2="186.3397694796"/><linearGradient id="e"><stop offset="0" stop-color="#3b395f"/><stop offset=".3952" stop-color="#39375d"/><stop offset=".6279" stop-color="#323154"/><stop offset=".8179" stop-color="#262846"/><stop offset=".9849" stop-color="#151a32"/><stop offset="1" stop-color="#131830"/></linearGradient><radialGradient id="f" cx="201.7829008212" cy="99.9898280624" gradientUnits="userSpaceOnUse" r="54.1433205196" xlink:href="#e"/><radialGradient id="g" cx="201.7885227844" cy="284.0138506646" gradientUnits="userSpaceOnUse" r="54.148038953" xlink:href="#e"/><linearGradient id="h" gradientUnits="userSpaceOnUse" x1="116.4319621862" x2="145.6598461176" xlink:href="#e" y1="255.9299358522" y2="255.9299358522"/><radialGradient id="i" cx="110.6970577612" cy="6.9691261318" gradientUnits="userSpaceOnUse" r="62.4661350762"><stop offset="0" stop-color="#ffd459"/><stop offset=".2296" stop-color="#ffd355"/><stop offset=".4362" stop-color="#ffcf4a"/><stop offset=".634" stop-color="#ffc838"/><stop offset=".825" stop-color="#ffbf1f"/><stop offset="1" stop-color="#ffb400"/></radialGradient><linearGradient id="j"><stop offset="0" stop-color="#fffcf8"/><stop offset=".1875" stop-color="#faf8f6"/><stop offset=".4041" stop-color="#eceef2"/><stop offset=".6353" stop-color="#d5dcea"/><stop offset=".875" stop-color="#b5c4df"/><stop offset="1" stop-color="#a1b5d8"/></linearGradient><linearGradient id="k" gradientUnits="userSpaceOnUse" x1="351.7282891724" x2="363.5308981654" xlink:href="#j" y1="173.1385967484" y2="290.3766079084"/><linearGradient id="l" gradientUnits="userSpaceOnUse" x1="217.0964258326" x2="304.3713809806" xlink:href="#j" y1="192.0029938738" y2="192.0029938738"/><linearGradient id="m"><stop offset="0" stop-color="#ff6e3a"/><stop offset=".2336" stop-color="#ff6b3c"/><stop offset=".418" stop-color="#ff6143"/><stop offset=".5857" stop-color="#ff504e"/><stop offset=".7434" stop-color="#ff395e"/><stop offset=".8928" stop-color="#ff1b72"/><stop offset="1" stop-color="#ff0084"/></linearGradient><linearGradient id="n" gradientUnits="userSpaceOnUse" x1="357.156294642" x2="415.7889535612" xlink:href="#m" y1="192.0044997568" y2="192.0044997568"/><linearGradient id="o" gradientUnits="userSpaceOnUse" x1="399.3040523602" x2="454.122610817" xlink:href="#m" y1="192.0044997568" y2="192.0044997568"/><linearGradient id="p" gradientUnits="userSpaceOnUse" x1="513.886087477" x2="197.1660643276" xlink:href="#b" y1="440.670557978" y2="260.0670984142"/><linearGradient id="q"><stop offset="0" stop-color="#ecf7ff"/><stop offset=".5353" stop-color="#eaf6ff"/><stop offset=".7282" stop-color="#e3f2ff"/><stop offset=".8651" stop-color="#d8ecff"/><stop offset=".9756" stop-color="#c7e3ff"/><stop offset="1" stop-color="#c2e0ff"/></linearGradient><radialGradient id="r" cx="338.6160639304" cy="266.7493036384" gradientUnits="userSpaceOnUse" r="166.6708292634" xlink:href="#q"/><radialGradient id="s" cx="214.3374473922" cy="283.1064055688" gradientUnits="userSpaceOnUse" r="43.101383226" xlink:href="#q"/><radialGradient id="t" cx="661.9483" cy="-985.2863" gradientTransform="matrix(.475156 .884355 .884355 -.475156 603.014927 -700.387489)" gradientUnits="userSpaceOnUse" r="162.3992" xlink:href="#q"/><path d="m512 256c0 141.386719-114.613281 256-256 256s-256-114.613281-256-256 114.613281-256 256-256 256 114.613281 256 256zm0 0" fill="url(#a)"/><path d="m512 256c0-29.144531-4.882812-57.148438-13.851562-83.25l-34.175782-34.175781c-3.515625-4.367188-7.511718-6.847657-11.753906-6.847657-.109375 0-.222656.015626-.335938.019532l-196.011718-29.273438c-14.019532 0-25.386719 40.085938-25.386719 89.53125 0 43.441406 8.773437 79.648438 20.410156 87.804688 1.253907 1.644531 2.550781 2.949218 3.886719 3.886718l167.195312 167.195313c55.082032-46.957031 90.023438-116.839844 90.023438-194.890625zm0 0" fill="url(#c)"/><path d="m494.457031 349.304688-331.761719-331.761719c-95.242187 37.296875-162.695312 129.996093-162.695312 238.457031 0 141.382812 114.617188 256 256 256 108.460938 0 201.160156-67.453125 238.457031-162.695312zm0 0" fill="url(#d)"/><path d="m275.667969 115.078125-148.953125-22.234375 1.1875-7.945312 148.949218 22.238281zm0 0" fill="url(#f)"/><path d="m127.902344 299.109375-1.1875-7.945313 148.960937-22.246093 1.1875 7.945312zm0 0" fill="url(#g)"/><path d="m142.367188 39.984375v445.480469c-9.40625-4.675782-18.492188-9.90625-27.207032-15.660156v-429.820313c0-7.507813 6.082032-13.589844 13.601563-13.589844 3.132812 0 6.023437 1.050781 8.324219 2.839844.453124.351563.882812.730469 1.292968 1.144531 2.460938 2.449219 3.988282 5.851563 3.988282 9.605469zm0 0" fill="url(#h)"/><path d="m169.917969 41.160156c0 22.730469-18.425781 41.160156-41.15625 41.160156-22.734375 0-41.160157-18.429687-41.160157-41.160156 0-22.730468 18.425782-41.160156 41.160157-41.160156 22.730469 0 41.15625 18.429688 41.15625 41.160156zm0 0" fill="url(#i)"/><path d="m255.875 102.472656c-14.023438 0-25.390625 40.085938-25.390625 89.53125 0 49.445313 11.367187 89.53125 25.390625 89.53125l196.011719-29.273437c.109375 0 .222656.019531.335937.019531 14.019532 0 25.386719-26.988281 25.386719-60.277344 0-33.289062-11.367187-60.277344-25.386719-60.277344-.113281 0-.226562.019532-.335937.023438zm0 0" fill="url(#k)"/><path d="m281.261719 192.003906c0-49.449218-11.367188-89.53125-25.386719-89.53125-14.023438 0-25.390625 40.082032-25.390625 89.53125 0 49.445313 11.367187 89.53125 25.390625 89.53125 14.019531 0 25.386719-40.085937 25.386719-89.53125zm0 0" fill="url(#l)"/><path d="m400.261719 192.003906c0 27.96875-3.632813 52.9375-9.335938 69.363282l-24.777343 3.691406c6.488281-16.222656 10.722656-42.898438 10.722656-73.054688s-4.234375-56.832031-10.722656-73.054687l24.777343 3.695312c5.703125 16.421875 9.335938 41.390625 9.335938 69.359375zm0 0" fill="url(#n)"/><path d="m439.605469 192.003906c0 24.65625-2.828125 47.003906-7.40625 63.195313l-24.488281 3.65625c5.210937-16.394531 8.503906-40.277344 8.503906-66.851563 0-26.574218-3.292969-50.457031-8.503906-66.851562l24.488281 3.65625c4.578125 16.191406 7.40625 38.539062 7.40625 63.195312zm0 0" fill="url(#o)"/><path d="m504.902344 316.03125-36.96875-36.96875c-4.59375-4.875-9.941406-8.976562-15.730469-12.066406-2.679687-1.441406-5.46875-2.660156-8.320313-3.667969-2.839843-1.035156-5.765624-1.8125-8.707031-2.390625-5.902343-1.105469-11.90625-1.3125-17.738281-.648438-2.917969.332032-5.789062.925782-8.585938 1.695313-2.796874.757813-5.523437 1.726563-8.136718 2.90625-2.617188 1.171875-5.125 2.539063-7.496094 4.085937-1.203125.742188-2.335938 1.589844-3.472656 2.410157-1.101563.882812-2.199219 1.75-3.226563 2.699219-4.175781 3.707031-7.683593 8.042968-10.398437 12.71875-.695313 1.15625-1.28125 2.378906-1.890625 3.566406-.542969 1.222656-1.128907 2.445312-1.585938 3.648437-.976562 2.410157-1.925781 4.835938-2.855469 7.273438l63.957032 62.871093c-8.117188 7.820313-17.257813 14.53125-27.152344 19.910157-16.125 8.792969-34.234375 13.996093-52.714844 15.160156-18.480468 1.210937-37.347656-1.644531-55.007812-8.574219-1.109375-.417968-2.210938-.859375-3.300782-1.328125-1.105468-.445312-2.1875-.941406-3.273437-1.425781-1.097656-.472656-2.15625-1.015625-3.238281-1.523438-1.082032-.515624-2.3125-1.144531-3.367188-1.6875-4.414062-2.214843-8.78125-4.570312-13.066406-7.085937-4.273438-2.535156-8.539062-5.121094-12.699219-7.882813-2.082031-1.375-4.140625-2.792968-6.183593-4.238281-2.046876-1.4375-4.085938-2.898437-6.085938-4.402343-.136719-.101563-.269531-.207032-.40625-.308594-.296875-.410156-.597656-.816406-.894531-1.230469.089843.253906-41.507813-41.511719-41.507813-41.511719 3.414063 9.835938 8.355469 19.222656 14.15625 28.054688 2.902344 4.421875 6.042969 8.695312 9.382813 12.820312 3.3125 4.148438 6.835937 8.132813 10.511719 11.980469 1.765624 1.859375 3.570312 3.675781 5.398437 5.480469l114.242187 114.242187c72.535157-31.742187 127.507813-96.125 146.363282-174.582031zm0 0" fill="url(#p)"/><path d="m204.847656 318.039062c12.03125 16.964844 26.773438 31.007813 42.808594 43.046876 2.003906 1.507812 4.039062 2.964843 6.089844 4.402343 2.042968 1.445313 4.097656 2.863281 6.179687 4.242188 4.164063 2.757812 8.425781 5.347656 12.703125 7.878906 4.285156 2.515625 8.652344 4.871094 13.0625 7.085937 1.058594.546876 2.289063 1.171876 3.367188 1.6875 1.082031.507813 2.144531 1.050782 3.238281 1.523438 1.089844.488281 2.171875.980469 3.273437 1.425781 1.09375.46875 2.195313.910157 3.304688 1.328125 17.660156 6.929688 36.527344 9.785156 55.007812 8.574219 18.480469-1.164063 36.585938-6.367187 52.714844-15.15625 16.136719-8.773437 30.289063-21.078125 41.207032-35.984375 1.382812-1.851562 2.691406-3.757812 3.976562-5.6875l1.839844-2.902344c.480468-.835937 1.007812-1.648437 1.433594-2.507812.484374-.839844.855468-1.722656 1.28125-2.589844.351562-.890625.761718-1.769531 1.054687-2.6875.65625-1.8125 1.199219-3.671875 1.585937-5.578125.417969-1.898437.660157-3.839844.769532-5.796875.128906-1.960938.089844-3.9375-.097656-5.90625-.066407-.988281-.230469-1.96875-.339844-2.960938-.175782-.976562-.320313-1.964843-.5625-2.9375-.441406-1.949218-1.007813-3.886718-1.753906-5.761718-.730469-1.875-1.570313-3.730469-2.59375-5.484375-.996094-1.773438-2.078126-3.519531-3.34375-5.140625-2.484376-3.28125-5.507813-6.1875-8.914063-8.699219-1.695313-1.277344-3.507813-2.414063-5.390625-3.417969-1.878906-1.035156-3.859375-1.871094-5.890625-2.617187-4.054687-1.511719-8.40625-2.433594-12.859375-2.683594-2.230469-.171875-4.488281-.140625-6.75.035156-2.269531.15625-4.53125.527344-6.78125 1.027344-2.261719.480469-4.503906 1.140625-6.691406 1.984375-2.195313.835938-4.359375 1.816406-6.453125 2.96875-2.101563 1.140625-4.132813 2.457031-6.070313 3.925781-1.960937 1.449219-3.835937 3.0625-5.574218 4.835938-.90625.859375-1.722657 1.800781-2.582032 2.730469-.804687.96875-1.605468 1.917968-2.417968 2.957031-1.605469 2.042969-3.234376 4.074219-4.886719 6.09375.929687-2.4375 1.882812-4.863281 2.855469-7.273438.457031-1.203125 1.042968-2.425781 1.585937-3.648437.609375-1.1875 1.195313-2.410156 1.890625-3.566406 2.714844-4.675782 6.222656-9.011719 10.398438-12.71875 1.027343-.949219 2.125-1.816407 3.226562-2.699219 1.136719-.820313 2.269531-1.667969 3.472656-2.410157 2.371094-1.546874 4.878906-2.914062 7.496094-4.085937 2.613281-1.183594 5.339844-2.148437 8.136719-2.90625 2.796875-.769531 5.667969-1.363281 8.585937-1.695313 5.832032-.664062 11.835938-.457031 17.738282.648438 2.941406.578125 5.867187 1.355469 8.707031 2.390625 2.851562 1.007813 5.640625 2.226563 8.320312 3.667969 10.734375 5.726562 19.980469 14.921875 25.65625 26.128906 1.453125 2.78125 2.667969 5.695312 3.683594 8.679688 1.027344 2.984374 1.851563 6.054687 2.375 9.183593.554687 3.125.882813 6.300781.949219 9.492188.089844 3.1875-.046875 6.398437-.453125 9.582031-.390625 3.183594-.980469 6.363281-1.886719 9.457031-.410156 1.5625-.960938 3.078125-1.476562 4.605469-.585938 1.5-1.148438 3.019531-1.835938 4.476562-.640625 1.484376-1.390625 2.910157-2.140625 4.339844-.71875 1.304688-1.394531 2.488282-2.105469 3.734375-1.445312 2.441407-2.929687 4.859375-4.507812 7.222657-12.585938 18.941406-30.050782 34.761718-50.175782 45.539062-20.101562 10.832031-42.84375 16.605469-65.539062 16.746094-11.347656.097656-22.664062-1.308594-33.621094-3.949219-5.480468-1.304687-10.847656-3.042969-16.089844-5.027344-5.238281-2-10.359374-4.273437-15.265624-6.925781-1.234376-.652344-2.453126-1.324219-3.65625-2.027344-1.214844-.675781-2.398438-1.402344-3.585938-2.121094-1.195312-.703124-2.351562-1.480468-3.519531-2.21875l-3.316407-2.1875c-4.464843-3.003906-8.816406-6.140624-13.042968-9.417968-4.246094-3.257813-8.316406-6.726563-12.289063-10.285156-1.980469-1.78125-3.929687-3.601563-5.851562-5.445313-1.898438-1.871094-3.777344-3.757813-5.609375-5.6875-3.671875-3.847656-7.195313-7.832031-10.511719-11.980469-3.339844-4.125-6.480469-8.398437-9.382813-12.820312-5.804687-8.832032-10.746093-18.21875-14.160156-28.050782zm0 0" fill="url(#r)"/><path d="m202.1875 281.707031c3.621094 3.332031 6.46875 6.683594 9.21875 10.09375 2.730469 3.398438 5.167969 6.886719 7.550781 10.414063 2.367188 3.535156 4.578125 7.175781 6.6875 10.980468 1.015625 1.941407 2.074219 3.859376 3.019531 5.929688.921876 2.085938 1.921876 4.140625 2.621094 6.566406-4.65625-1.605468-8.613281-4.203125-12.09375-7.242187-3.527344-3.015625-6.496094-6.566407-9.050781-10.382813-2.546875-3.820312-4.605469-7.96875-6.054687-12.367187-1.402344-4.402344-2.394532-9.042969-1.898438-13.992188zm0 0" fill="url(#s)"/><path d="m44.84375 222.957031c6.761719 1.445313 13.226562 2.894531 19.601562 4.515625 6.367188 1.601563 12.609376 3.277344 18.722657 5.175782 12.246093 3.722656 23.964843 8.242187 35.25 13.542968 5.625 2.699219 11.101562 5.652344 16.511719 8.78125 5.386718 3.171875 10.613281 6.628906 15.832031 10.25l3.84375 2.824219c1.296875.933594 2.582031 1.886719 3.835937 2.890625 1.269532.984375 2.523438 1.996094 3.824219 2.972656 1.289063.992188 2.488281 2.074219 3.765625 3.101563 2.605469 2.011719 5 4.25 7.597656 6.390625 1.3125 1.058594 2.519532 2.210937 3.796875 3.328125 1.289063 1.109375 2.578125 2.234375 3.960938 3.320312-2.042969-6.597656-4.910157-12.945312-8.523438-18.871093-.910156-1.472657-1.808593-2.972657-2.78125-4.417969-.996093-1.425781-2.039062-2.816407-3.066406-4.234375-.523437-.695313-1.007813-1.4375-1.578125-2.09375l-1.695312-2c-1.140626-1.324219-2.242188-2.703125-3.453126-3.96875l-3.691406-3.761719c-1.222656-1.273437-2.574218-2.394531-3.886718-3.570313-2.589844-2.402343-5.40625-4.523437-8.230469-6.648437-5.746094-4.105469-11.832031-7.753906-18.207031-10.792969-12.769532-6.023437-26.519532-9.8125-40.390626-11.105468-6.9375-.636719-13.90625-.671876-20.800781-.027344-3.445312.324218-6.875.816406-10.261719 1.523437-3.382812.707031-6.746093 1.570313-9.976562 2.875zm0 0" fill="url(#t)"/></svg>